<svg xmlns="http://www.w3.org/2000/svg" viewBox="0 0 400 400" width="400" height="400">
  <defs>
    <radialGradient id="bgChenxiang" cx="50%" cy="50%" r="60%">
      <stop offset="0%" stop-color="#1a110a" />
      <stop offset="70%" stop-color="#0f0905" />
      <stop offset="100%" stop-color="#050302" />
    </radialGradient>
    <radialGradient id="chenxiangBead" cx="35%" cy="35%" r="65%">
      <stop offset="0%" stop-color="#543729" />
      <stop offset="30%" stop-color="#2c1a11" />
      <stop offset="75%" stop-color="#170c07" />
      <stop offset="100%" stop-color="#080302" />
    </radialGradient>
    <radialGradient id="specularGlow" cx="30%" cy="30%" r="30%">
      <stop offset="0%" stop-color="#ffffff" stop-opacity="0.5" />
      <stop offset="100%" stop-color="#ffffff" stop-opacity="0" />
    </radialGradient>
  </defs>

  <rect width="400" height="400" fill="url(#bgChenxiang)" />
  <circle cx="200" cy="200" r="185" fill="none" stroke="#d97706" stroke-opacity="0.2" stroke-width="2" />

  <g transform="translate(200, 200)">
    <ellipse cx="0" cy="15" rx="130" ry="120" fill="#000000" opacity="0.75" filter="blur(10px)" />
    
    <!-- 16 Large 12mm Sinking Agarwood Beads -->
    <g>
      <circle cx="0" cy="-115" r="24" fill="url(#chenxiangBead)" />
      <ellipse cx="-7" cy="-122" rx="9" ry="5" fill="url(#specularGlow)" />
      
      <circle cx="44" cy="-106" r="23" fill="url(#chenxiangBead)" />
      <circle cx="81" cy="-81" r="23" fill="url(#chenxiangBead)" />
      <circle cx="106" cy="-44" r="23" fill="url(#chenxiangBead)" />
      <circle cx="115" cy="0" r="23" fill="url(#chenxiangBead)" />
      <circle cx="106" cy="44" r="23" fill="url(#chenxiangBead)" />
      <circle cx="81" cy="81" r="23" fill="url(#chenxiangBead)" />
      <circle cx="44" cy="106" r="23" fill="url(#chenxiangBead)" />
      <circle cx="0" cy="115" r="23" fill="url(#chenxiangBead)" />
      <circle cx="-44" cy="106" r="23" fill="url(#chenxiangBead)" />
      <circle cx="-81" cy="81" r="23" fill="url(#chenxiangBead)" />
      <circle cx="-106" cy="44" r="23" fill="url(#chenxiangBead)" />
      <circle cx="-115" cy="0" r="23" fill="url(#chenxiangBead)" />
      <circle cx="-106" cy="-44" r="23" fill="url(#chenxiangBead)" />
      <circle cx="-81" cy="-81" r="23" fill="url(#chenxiangBead)" />
      <circle cx="-44" cy="-106" r="23" fill="url(#chenxiangBead)" />
    </g>

    <!-- Natural Resin Lines in Beads -->
    <path d="M -10 -115 Q 0 -110 10 -115" stroke="#120603" stroke-width="2" fill="none" />
    <path d="M 35 -106 Q 44 -100 53 -106" stroke="#120603" stroke-width="2" fill="none" />
  </g>
</svg>